<svg width="48" height="48" viewBox="0 0 48 48" fill="none" xmlns="http://www.w3.org/2000/svg">
<path d="M19.4339 40.998L34.9799 25.05C35.2529 24.7699 35.4058 24.3942 35.4058 24.003C35.4058 23.6118 35.2529 23.2361 34.9799 22.956L19.4339 7.002C19.3067 6.87137 19.1546 6.76754 18.9867 6.69665C18.8187 6.62575 18.6382 6.58923 18.4559 6.58923C18.2736 6.58923 18.0931 6.62575 17.9251 6.69665C17.7572 6.76754 17.6051 6.87137 17.4779 7.002C17.2162 7.26988 17.0697 7.62951 17.0697 8.004C17.0697 8.37848 17.2162 8.73811 17.4779 9.00599L32.0969 24.003L17.4779 38.997C17.2171 39.2647 17.0712 39.6237 17.0712 39.9975C17.0712 40.3713 17.2171 40.7303 17.4779 40.998C17.6051 41.1286 17.7572 41.2325 17.9251 41.3033C18.0931 41.3742 18.2736 41.4108 18.4559 41.4108C18.6382 41.4108 18.8187 41.3742 18.9867 41.3033C19.1547 41.2325 19.3067 41.1286 19.4339 40.998Z" fill="#D9D9D9"/>
</svg>
