<svg width="29" height="30" viewBox="0 0 29 30" fill="none" xmlns="http://www.w3.org/2000/svg">
<path d="M14.5001 2.5C7.83008 2.5 2.41675 8.1 2.41675 15C2.41675 21.9 7.83008 27.5 14.5001 27.5C21.1701 27.5 26.5834 21.9 26.5834 15C26.5834 8.1 21.1701 2.5 14.5001 2.5ZM20.1067 11C19.9255 12.975 19.1401 17.775 18.7413 19.9875C18.5722 20.925 18.2338 21.2375 17.9197 21.275C17.2188 21.3375 16.6872 20.8 16.0105 20.3375C14.9472 19.6125 14.343 19.1625 13.3159 18.4625C12.1197 17.65 12.893 17.2 13.5817 16.475C13.763 16.2875 16.8563 13.375 16.9167 13.1125C16.9251 13.0727 16.924 13.0315 16.9135 12.9923C16.903 12.953 16.8833 12.9171 16.8563 12.8875C16.7838 12.825 16.6872 12.85 16.6026 12.8625C16.4938 12.8875 14.8022 14.05 11.5034 16.35C11.0201 16.6875 10.5851 16.8625 10.1984 16.85C9.76341 16.8375 8.94175 16.6 8.3255 16.3875C7.56425 16.1375 6.97216 16 7.0205 15.5625C7.04466 15.3375 7.34675 15.1125 7.91466 14.875C11.443 13.2875 13.7872 12.2375 14.9592 11.7375C18.3184 10.2875 19.0072 10.0375 19.4663 10.0375C19.563 10.0375 19.7926 10.0625 19.9376 10.1875C20.0584 10.2875 20.0947 10.425 20.1067 10.525C20.0947 10.6 20.1188 10.825 20.1067 11Z" fill="#D9D9D9"/>
</svg>
