<svg width="29" height="29" viewBox="0 0 29 29" fill="none" xmlns="http://www.w3.org/2000/svg">
<path d="M16.0746 1.4165C17.5698 1.42049 18.3288 1.42847 18.9841 1.44707L19.2419 1.45638C19.5396 1.46701 19.8334 1.4803 20.1883 1.49625C21.6025 1.56271 22.5674 1.78601 23.4141 2.1143C24.2913 2.45191 25.0303 2.90913 25.7693 3.64681C26.4455 4.31102 26.9685 5.11481 27.3018 6.00205C27.6301 6.84871 27.8534 7.81367 27.9199 9.2292C27.9358 9.58276 27.9491 9.8765 27.9597 10.1756L27.9677 10.4334C27.9877 11.0873 27.9956 11.8463 27.9983 13.3416L27.9996 14.3331V16.0743C28.0029 17.0438 27.9927 18.0133 27.9691 18.9825L27.9611 19.2403C27.9504 19.5394 27.9372 19.8331 27.9212 20.1867C27.8547 21.6022 27.6288 22.5658 27.3018 23.4138C26.9685 24.3011 26.4455 25.1048 25.7693 25.7691C25.1051 26.4452 24.3013 26.9682 23.4141 27.3016C22.5674 27.6299 21.6025 27.8532 20.1883 27.9196L19.2419 27.9595L18.9841 27.9675C18.3288 27.9861 17.5698 27.9954 16.0746 27.998L15.083 27.9994H13.3432C12.3732 28.0028 11.4033 27.9926 10.4337 27.9688L10.1758 27.9608C9.8603 27.9489 9.54484 27.9351 9.22947 27.9196C7.81526 27.8532 6.85031 27.6299 6.00231 27.3016C5.11555 26.968 4.31223 26.445 3.6484 25.7691C2.9718 25.105 2.44833 24.3012 2.11457 23.4138C1.78627 22.5671 1.56298 21.6022 1.49652 20.1867L1.45665 19.2403L1.45 18.9825C1.4255 18.0133 1.41442 17.0438 1.41677 16.0743V13.3416C1.41309 12.3721 1.42284 11.4026 1.44601 10.4334L1.45532 10.1756C1.46595 9.8765 1.47924 9.58276 1.49519 9.2292C1.56165 7.81367 1.78494 6.85004 2.11324 6.00205C2.44778 5.11444 2.97217 4.31063 3.64973 3.64681C4.31318 2.971 5.11603 2.44802 6.00231 2.1143C6.85031 1.78601 7.81394 1.56271 9.22947 1.49625C9.58302 1.4803 9.87809 1.46701 10.1758 1.45638L10.4337 1.4484C11.4029 1.42479 12.3724 1.4146 13.3418 1.41783L16.0746 1.4165ZM14.7082 8.06222C12.9456 8.06222 11.2553 8.76239 10.009 10.0087C8.76266 11.255 8.06249 12.9454 8.06249 14.7079C8.06249 16.4705 8.76266 18.1608 10.009 19.4072C11.2553 20.6535 12.9456 21.3536 14.7082 21.3536C16.4708 21.3536 18.1611 20.6535 19.4074 19.4072C20.6537 18.1608 21.3539 16.4705 21.3539 14.7079C21.3539 12.9454 20.6537 11.255 19.4074 10.0087C18.1611 8.76239 16.4708 8.06222 14.7082 8.06222ZM14.7082 10.7205C15.2318 10.7204 15.7504 10.8235 16.2342 11.0238C16.718 11.2241 17.1576 11.5177 17.5279 11.8879C17.8983 12.2581 18.192 12.6976 18.3925 13.1814C18.593 13.6651 18.6962 14.1836 18.6963 14.7073C18.6964 15.2309 18.5933 15.7494 18.393 16.2332C18.1927 16.717 17.8991 17.1567 17.5289 17.527C17.1587 17.8973 16.7191 18.1911 16.2354 18.3916C15.7517 18.592 15.2332 18.6953 14.7095 18.6954C13.652 18.6954 12.6378 18.2753 11.89 17.5275C11.1422 16.7797 10.7221 15.7655 10.7221 14.7079C10.7221 13.6504 11.1422 12.6362 11.89 11.8884C12.6378 11.1406 13.652 10.7205 14.7095 10.7205M21.6875 6.0685C21.2469 6.0685 20.8243 6.24355 20.5127 6.55512C20.2011 6.8667 20.0261 7.28929 20.0261 7.72993C20.0261 8.17057 20.2011 8.59316 20.5127 8.90474C20.8243 9.21632 21.2469 9.39136 21.6875 9.39136C22.1282 9.39136 22.5508 9.21632 22.8623 8.90474C23.1739 8.59316 23.349 8.17057 23.349 7.72993C23.349 7.28929 23.1739 6.8667 22.8623 6.55512C22.5508 6.24355 22.1282 6.0685 21.6875 6.0685Z" fill="#D9D9D9"/>
</svg>
